<?xml version="1.0" encoding="UTF-8" standalone="no"?>
<!DOCTYPE svg PUBLIC "-//W3C//DTD SVG 1.1//EN" "http://www.w3.org/Graphics/SVG/1.1/DTD/svg11.dtd">
<svg width="100%" height="100%" viewBox="0 0 383 442" version="1.1" xmlns="http://www.w3.org/2000/svg" xmlns:xlink="http://www.w3.org/1999/xlink" xml:space="preserve" xmlns:serif="http://www.serif.com/" style="fill-rule:evenodd;clip-rule:evenodd;stroke-linejoin:round;stroke-miterlimit:2;">
    <path d="M255.154,333.302C241.531,344.923 194.083,358.416 159.688,337.896C126.982,318.383 127.01,304.224 87.832,285.634C38.103,262.037 89.615,235.758 53.438,196.48C30.307,171.366 49.02,137.977 51.389,133.523C76.799,85.743 50.507,72.536 80.082,50.455C95.187,39.177 127.504,38.343 146.253,53.078C171.867,73.208 175.269,62.735 208.032,63.571C252.285,64.7 235.266,127.112 273.911,136.729C343.686,154.094 290.574,209.385 315.487,225.919C319.721,228.729 345.896,270.846 313.145,303.449C300.165,316.37 286.362,322.689 275.736,325.966C289.654,341.479 306.768,357.389 329.395,374.223C337.604,380.331 344.404,388.527 339.016,396.918C332.335,402.552 324.184,399.412 316.032,393.229C298.726,380.105 274.749,356.595 255.154,333.302Z" style="fill:none;stroke:#034ebb;stroke-width:84px;"/>
    <path d="M255.154,333.302C241.531,344.923 194.083,358.416 159.688,337.896C126.982,318.383 127.01,304.224 87.832,285.634C38.103,262.037 89.615,235.758 53.438,196.48C30.307,171.366 49.02,137.977 51.389,133.523C76.799,85.743 50.507,72.536 80.082,50.455C95.187,39.177 127.504,38.343 146.253,53.078C171.867,73.208 175.269,62.735 208.032,63.571C252.285,64.7 235.266,127.112 273.911,136.729C343.686,154.094 290.574,209.385 315.487,225.919C319.721,228.729 345.896,270.846 313.145,303.449C300.165,316.37 286.362,322.689 275.736,325.966C289.654,341.479 306.768,357.389 329.395,374.223C337.604,380.331 344.404,388.527 339.016,396.918C332.335,402.552 324.184,399.412 316.032,393.229C298.726,380.105 274.749,356.595 255.154,333.302Z" style="fill:none;stroke:#f7fbff;stroke-width:68px;"/>
    <path d="M255.154,333.302C241.531,344.923 194.083,358.416 159.688,337.896C126.982,318.383 127.01,304.224 87.832,285.634C38.103,262.037 89.615,235.758 53.438,196.48C30.307,171.366 49.02,137.977 51.389,133.523C76.799,85.743 50.507,72.536 80.082,50.455C95.187,39.177 127.504,38.343 146.253,53.078C171.867,73.208 175.269,62.735 208.032,63.571C252.285,64.7 235.266,127.112 273.911,136.729C343.686,154.094 290.574,209.385 315.487,225.919C319.721,228.729 345.896,270.846 313.145,303.449C300.165,316.37 286.362,322.689 275.736,325.966C289.654,341.479 306.768,357.389 329.395,374.223C337.604,380.331 344.404,388.527 339.016,396.918C332.335,402.552 324.184,399.412 316.032,393.229C298.726,380.105 274.749,356.595 255.154,333.302Z" style="fill:#ff8f29;"/>
    <clipPath id="_clip1">
        <path d="M255.154,333.302C241.531,344.923 194.083,358.416 159.688,337.896C126.982,318.383 127.01,304.224 87.832,285.634C38.103,262.037 89.615,235.758 53.438,196.48C30.307,171.366 49.02,137.977 51.389,133.523C76.799,85.743 50.507,72.536 80.082,50.455C95.187,39.177 127.504,38.343 146.253,53.078C171.867,73.208 175.269,62.735 208.032,63.571C252.285,64.7 235.266,127.112 273.911,136.729C343.686,154.094 290.574,209.385 315.487,225.919C319.721,228.729 345.896,270.846 313.145,303.449C300.165,316.37 286.362,322.689 275.736,325.966C289.654,341.479 306.768,357.389 329.395,374.223C337.604,380.331 344.404,388.527 339.016,396.918C332.335,402.552 324.184,399.412 316.032,393.229C298.726,380.105 274.749,356.595 255.154,333.302Z"/>
    </clipPath>
    <g clip-path="url(#_clip1)">
        <path d="M147.989,155.997C147.047,157.131 234.922,294.735 249.92,304.688" style="fill:none;stroke:#034ebb;stroke-width:8px;stroke-linecap:round;stroke-miterlimit:1.5;"/>
        <path d="M135.121,209.124C141.492,211.471 192.203,226.927 194.101,228.817" style="fill:none;stroke:#034ebb;stroke-width:8px;stroke-linecap:round;stroke-miterlimit:1.5;"/>
        <path d="M227.15,275.509C227.677,236.639 226.418,238.584 230.327,199.666" style="fill:none;stroke:#034ebb;stroke-width:8px;stroke-linecap:round;stroke-miterlimit:1.5;"/>
    </g>
    <path d="M255.154,333.302C241.531,344.923 194.083,358.416 159.688,337.896C126.982,318.383 127.01,304.224 87.832,285.634C38.103,262.037 89.615,235.758 53.438,196.48C30.307,171.366 49.02,137.977 51.389,133.523C76.799,85.743 50.507,72.536 80.082,50.455C95.187,39.177 127.504,38.343 146.253,53.078C171.867,73.208 175.269,62.735 208.032,63.571C252.285,64.7 235.266,127.112 273.911,136.729C343.686,154.094 290.574,209.385 315.487,225.919C319.721,228.729 345.896,270.846 313.145,303.449C300.165,316.37 286.362,322.689 275.736,325.966C289.654,341.479 306.768,357.389 329.395,374.223C337.604,380.331 344.404,388.527 339.016,396.918C332.335,402.552 324.184,399.412 316.032,393.229C298.726,380.105 274.749,356.595 255.154,333.302Z" style="fill:none;stroke:#034ebb;stroke-width:8px;stroke-linecap:round;stroke-miterlimit:1.5;"/>
</svg>
