<?xml version="1.0" encoding="UTF-8" standalone="no"?>
<!DOCTYPE svg PUBLIC "-//W3C//DTD SVG 1.1//EN" "http://www.w3.org/Graphics/SVG/1.1/DTD/svg11.dtd">
<svg width="100%" height="100%" viewBox="0 0 423 375" version="1.1" xmlns="http://www.w3.org/2000/svg" xmlns:xlink="http://www.w3.org/1999/xlink" xml:space="preserve" xmlns:serif="http://www.serif.com/" style="fill-rule:evenodd;clip-rule:evenodd;stroke-linejoin:round;stroke-miterlimit:2;">
    <path d="M199.187,211.65C172.195,218.728 131.284,205.914 95.626,176.734C49.083,138.646 29.001,87.006 50.808,61.488C72.616,35.969 128.108,46.174 174.65,84.261C190.777,97.459 203.727,112.283 212.858,127.084C221.061,112.342 232.778,97.436 247.525,83.868C291.727,43.199 346.519,29.856 369.805,54.091C393.091,78.327 376.109,131.021 331.907,171.691C297.072,203.741 255.661,218.82 228.276,211.911L228.276,318.657C228.276,322.432 226.744,326.052 224.016,328.721C221.289,331.39 217.59,332.889 213.733,332.889L213.73,332.889C209.873,332.889 206.174,331.39 203.447,328.721C200.719,326.052 199.187,322.432 199.187,318.657L199.187,211.65Z" style="fill:none;stroke:#034ebb;stroke-width:84px;"/>
    <path d="M199.187,211.65C172.195,218.728 131.284,205.914 95.626,176.734C49.083,138.646 29.001,87.006 50.808,61.488C72.616,35.969 128.108,46.174 174.65,84.261C190.777,97.459 203.727,112.283 212.858,127.084C221.061,112.342 232.778,97.436 247.525,83.868C291.727,43.199 346.519,29.856 369.805,54.091C393.091,78.327 376.109,131.021 331.907,171.691C297.072,203.741 255.661,218.82 228.276,211.911L228.276,318.657C228.276,322.432 226.744,326.052 224.016,328.721C221.289,331.39 217.59,332.889 213.733,332.889L213.73,332.889C209.873,332.889 206.174,331.39 203.447,328.721C200.719,326.052 199.187,322.432 199.187,318.657L199.187,211.65Z" style="fill:none;stroke:#f7fbff;stroke-width:68px;"/>
    <path d="M199.187,211.65C172.195,218.728 131.284,205.914 95.626,176.734C49.083,138.646 29.001,87.006 50.808,61.488C72.616,35.969 128.108,46.174 174.65,84.261C190.777,97.459 203.727,112.283 212.858,127.084C221.061,112.342 232.778,97.436 247.525,83.868C291.727,43.199 346.519,29.856 369.805,54.091C393.091,78.327 376.109,131.021 331.907,171.691C297.072,203.741 255.661,218.82 228.276,211.911L228.276,318.657C228.276,322.432 226.744,326.052 224.016,328.721C221.289,331.39 217.59,332.889 213.733,332.889L213.73,332.889C209.873,332.889 206.174,331.39 203.447,328.721C200.719,326.052 199.187,322.432 199.187,318.657L199.187,211.65Z" style="fill:#5dd897;"/>
    <clipPath id="_clip1">
        <path d="M199.187,211.65C172.195,218.728 131.284,205.914 95.626,176.734C49.083,138.646 29.001,87.006 50.808,61.488C72.616,35.969 128.108,46.174 174.65,84.261C190.777,97.459 203.727,112.283 212.858,127.084C221.061,112.342 232.778,97.436 247.525,83.868C291.727,43.199 346.519,29.856 369.805,54.091C393.091,78.327 376.109,131.021 331.907,171.691C297.072,203.741 255.661,218.82 228.276,211.911L228.276,318.657C228.276,322.432 226.744,326.052 224.016,328.721C221.289,331.39 217.59,332.889 213.733,332.889L213.73,332.889C209.873,332.889 206.174,331.39 203.447,328.721C200.719,326.052 199.187,322.432 199.187,318.657L199.187,211.65Z"/>
    </clipPath>
    <g clip-path="url(#_clip1)">
        <path d="M137.572,118.25C164.341,128.01 191.588,154.674 195.617,158.616C195.617,158.616 208.413,170.479 207.465,169.6" style="fill:none;stroke:#0051c6;stroke-width:8px;stroke-linecap:round;stroke-miterlimit:1.5;"/>
    </g>
    <path d="M199.187,211.65C172.195,218.728 131.284,205.914 95.626,176.734C49.083,138.646 29.001,87.006 50.808,61.488C72.616,35.969 128.108,46.174 174.65,84.261C190.777,97.459 203.727,112.283 212.858,127.084C221.061,112.342 232.778,97.436 247.525,83.868C291.727,43.199 346.519,29.856 369.805,54.091C393.091,78.327 376.109,131.021 331.907,171.691C297.072,203.741 255.661,218.82 228.276,211.911L228.276,318.657C228.276,322.432 226.744,326.052 224.016,328.721C221.289,331.39 217.59,332.889 213.733,332.889L213.73,332.889C209.873,332.889 206.174,331.39 203.447,328.721C200.719,326.052 199.187,322.432 199.187,318.657L199.187,211.65Z" style="fill:none;stroke:#0051c6;stroke-width:8px;stroke-linecap:round;stroke-miterlimit:1.5;"/>
</svg>
