<?xml version="1.0" encoding="UTF-8" standalone="no"?>
<!DOCTYPE svg PUBLIC "-//W3C//DTD SVG 1.1//EN" "http://www.w3.org/Graphics/SVG/1.1/DTD/svg11.dtd">
<svg width="100%" height="100%" viewBox="0 0 469 410" version="1.1" xmlns="http://www.w3.org/2000/svg" xmlns:xlink="http://www.w3.org/1999/xlink" xml:space="preserve" xmlns:serif="http://www.serif.com/" style="fill-rule:evenodd;clip-rule:evenodd;stroke-linecap:round;stroke-linejoin:round;stroke-miterlimit:1.5;">
    <g>
        <path d="M170.547,336.615L42,367.005L42,72.39L170.547,42L299.093,72.39L426.871,42L426.871,336.615L299.093,367.005L170.547,336.615Z" style="fill:none;stroke:#0051c6;stroke-width:84px;"/>
        <path d="M170.547,336.615L42,367.005L42,72.39L170.547,42L299.093,72.39L426.871,42L426.871,336.615L299.093,367.005L170.547,336.615Z" style="fill:none;stroke:#f7fbff;stroke-width:68px;stroke-linecap:butt;stroke-miterlimit:2;"/>
        <path d="M170.547,42L170.547,336.615C170.547,336.615 90.535,355.531 56.761,363.515C53.191,364.359 49.431,363.524 46.555,361.248C43.678,358.972 42,355.505 42,351.837C42,301.4 42,139.602 42,88.213C42,78.94 48.374,70.883 57.399,68.75C91.53,60.681 170.547,42 170.547,42Z" style="fill:#00a6ca;"/>
        <clipPath id="_clip1">
            <path d="M170.547,42L170.547,336.615C170.547,336.615 90.535,355.531 56.761,363.515C53.191,364.359 49.431,363.524 46.555,361.248C43.678,358.972 42,355.505 42,351.837C42,301.4 42,139.602 42,88.213C42,78.94 48.374,70.883 57.399,68.75C91.53,60.681 170.547,42 170.547,42Z"/>
        </clipPath>
        <g clip-path="url(#_clip1)">
            <path d="M181.739,-36.963C118.208,2.579 60.505,136.481 114.828,148.553C171.8,161.214 70.093,266.819 141.827,271.039C186.845,273.687 265.032,185.134 285.386,251.283C300.758,301.242 366.375,260.863 372.311,257.21C470.297,196.911 525.505,262.217 587.648,167.65C596.545,154.113 599.255,59.352 544.186,14.873C528.309,2.049 466.135,-59.462 257.728,-54.931C255.545,-54.884 255.791,-54.56 230.728,-50.98L181.739,-36.963Z" style="fill:#5dd897;stroke:#0051c6;stroke-width:8.74px;"/>
        </g>
        <path d="M170.547,42L170.547,336.615C170.547,336.615 90.535,355.531 56.761,363.515C53.191,364.359 49.431,363.524 46.555,361.248C43.678,358.972 42,355.505 42,351.837C42,301.4 42,139.602 42,88.213C42,78.94 48.374,70.883 57.399,68.75C91.53,60.681 170.547,42 170.547,42Z" style="fill:none;stroke:#0051c6;stroke-width:8px;"/>
        <path d="M170.547,42L299.093,72.39L299.093,367.005L170.547,336.615L170.547,42Z" style="fill:#00a6ca;"/>
        <clipPath id="_clip2">
            <path d="M170.547,42L299.093,72.39L299.093,367.005L170.547,336.615L170.547,42Z"/>
        </clipPath>
        <g clip-path="url(#_clip2)">
            <path d="M181.739,-36.963C118.208,2.579 60.505,136.481 114.828,148.553C171.8,161.214 70.093,266.819 141.827,271.039C186.845,273.687 265.032,185.134 285.386,251.283C300.758,301.242 366.375,260.863 372.311,257.21C470.297,196.911 525.505,262.217 587.648,167.65C596.545,154.113 599.255,59.352 544.186,14.873C528.309,2.049 466.135,-59.462 257.728,-54.931C255.545,-54.884 255.791,-54.56 230.728,-50.98L181.739,-36.963Z" style="fill:#5dd897;stroke:#0051c6;stroke-width:8.74px;"/>
        </g>
        <path d="M170.547,42L299.093,72.39L299.093,367.005L170.547,336.615L170.547,42Z" style="fill:none;stroke:#0051c6;stroke-width:8px;"/>
        <path d="M412.094,45.514C415.666,44.665 419.43,45.497 422.31,47.773C425.191,50.049 426.871,53.518 426.871,57.189C426.871,107.657 426.871,269.456 426.871,320.814C426.871,330.077 420.51,338.128 411.499,340.271C377.536,348.349 299.093,367.005 299.093,367.005L299.093,72.39C299.093,72.39 378.463,53.513 412.094,45.514Z" style="fill:#00a6ca;"/>
        <clipPath id="_clip3">
            <path d="M412.094,45.514C415.666,44.665 419.43,45.497 422.31,47.773C425.191,50.049 426.871,53.518 426.871,57.189C426.871,107.657 426.871,269.456 426.871,320.814C426.871,330.077 420.51,338.128 411.499,340.271C377.536,348.349 299.093,367.005 299.093,367.005L299.093,72.39C299.093,72.39 378.463,53.513 412.094,45.514Z"/>
        </clipPath>
        <g clip-path="url(#_clip3)">
            <path d="M181.739,-36.963C118.208,2.579 60.505,136.481 114.828,148.553C171.8,161.214 70.093,266.819 141.827,271.039C186.845,273.687 265.032,185.134 285.386,251.283C300.758,301.242 366.375,260.863 372.311,257.21C470.297,196.911 525.505,262.217 587.648,167.65C596.545,154.113 599.255,59.352 544.186,14.873C528.309,2.049 466.135,-59.462 257.728,-54.931C255.545,-54.884 255.791,-54.56 230.728,-50.98L181.739,-36.963Z" style="fill:#5dd897;stroke:#0051c6;stroke-width:8.74px;"/>
            <path d="M414.602,261.315C371.482,269.939 393.446,295.897 391.319,298.449C379.61,312.499 364.153,318.383 382.156,322.884C423.464,333.211 507.358,244.155 419.825,258.743C417.695,259.099 418.14,259.331 416.262,260.271" style="fill:#5dd897;stroke:#0051c6;stroke-width:8.74px;"/>
        </g>
        <path d="M412.094,45.514C415.666,44.665 419.43,45.497 422.31,47.773C425.191,50.049 426.871,53.518 426.871,57.189C426.871,107.657 426.871,269.456 426.871,320.814C426.871,330.077 420.51,338.128 411.499,340.271C377.536,348.349 299.093,367.005 299.093,367.005L299.093,72.39C299.093,72.39 378.463,53.513 412.094,45.514Z" style="fill:none;stroke:#0051c6;stroke-width:8px;"/>
    </g>
</svg>
