<?xml version="1.0" encoding="UTF-8" standalone="no"?>
<!DOCTYPE svg PUBLIC "-//W3C//DTD SVG 1.1//EN" "http://www.w3.org/Graphics/SVG/1.1/DTD/svg11.dtd">
<svg width="100%" height="100%" viewBox="0 0 357 621" version="1.1" xmlns="http://www.w3.org/2000/svg" xmlns:xlink="http://www.w3.org/1999/xlink" xml:space="preserve" xmlns:serif="http://www.serif.com/" style="fill-rule:evenodd;clip-rule:evenodd;stroke-linejoin:round;stroke-miterlimit:2;">
    <g>
        <path d="M146.739,442.846L110.536,442.846C72.685,442.846 42,412.162 42,374.31L42,176.692C42,102.354 102.985,42 178.1,42C253.216,42 314.201,102.354 314.201,176.692L314.201,374.31C314.201,412.162 283.516,442.846 245.664,442.846L209.462,442.846L209.462,547.057C209.462,555.375 206.158,563.351 200.277,569.232C194.396,575.113 186.419,578.417 178.102,578.417L178.099,578.417C169.781,578.417 161.805,575.113 155.924,569.232C150.043,563.351 146.739,555.375 146.739,547.057L146.739,442.846Z" style="fill:none;stroke:#034ebb;stroke-width:84px;"/>
        <path d="M146.739,442.846L110.536,442.846C72.685,442.846 42,412.162 42,374.31L42,176.692C42,102.354 102.985,42 178.1,42C253.216,42 314.201,102.354 314.201,176.692L314.201,374.31C314.201,412.162 283.516,442.846 245.664,442.846L209.462,442.846L209.462,547.057C209.462,555.375 206.158,563.351 200.277,569.232C194.396,575.113 186.419,578.417 178.102,578.417L178.099,578.417C169.781,578.417 161.805,575.113 155.924,569.232C150.043,563.351 146.739,555.375 146.739,547.057L146.739,442.846Z" style="fill:none;stroke:#f5f5f5;stroke-width:68px;stroke-linecap:round;stroke-miterlimit:1.5;"/>
        <path d="M209.462,376.609L209.462,547.057C209.462,555.375 206.158,563.351 200.277,569.232C194.396,575.113 186.419,578.417 178.102,578.417C178.101,578.417 178.1,578.417 178.099,578.417C169.781,578.417 161.805,575.113 155.924,569.232C150.043,563.351 146.739,555.375 146.739,547.057C146.739,490.357 146.739,376.609 146.739,376.609L209.462,376.609Z" style="fill:#ffab5e;stroke:#034ebb;stroke-width:8px;stroke-linecap:round;stroke-miterlimit:1.5;"/>
        <path d="M42,176.692C42,102.354 102.985,42 178.1,42C253.216,42 314.201,102.354 314.201,176.692L314.201,374.31C314.201,412.162 283.516,442.846 245.664,442.846L110.536,442.846C72.685,442.846 42,412.162 42,374.31L42,176.692Z" style="fill:#00a6ca;stroke:#034ebb;stroke-width:8px;stroke-linecap:round;stroke-miterlimit:1.5;"/>
        <path d="M89.847,364.11L89.847,164.987L89.849,164.987C90.047,141.031 105.796,121.657 125.165,121.657C144.534,121.657 160.282,141.031 160.48,164.987L160.482,164.987L160.482,362.012C160.482,371.657 156.651,380.907 149.831,387.727C143.011,394.547 133.761,398.378 124.116,398.378L124.115,398.378C115.027,398.378 106.311,394.768 99.884,388.341C93.458,381.914 89.847,373.198 89.847,364.11Z" style="fill:#0051c6;fill-opacity:0.4;stroke:#0051c6;stroke-width:8px;stroke-linecap:round;stroke-miterlimit:1.5;"/>
        <path d="M266.353,364.11L266.353,164.987L266.351,164.987C266.153,141.031 250.405,121.657 231.036,121.657C211.667,121.657 195.918,141.031 195.72,164.987L195.719,164.987L195.719,362.012C195.719,371.657 199.55,380.907 206.37,387.727C213.19,394.547 222.44,398.378 232.085,398.378L232.085,398.378C241.174,398.378 249.89,394.768 256.316,388.341C262.743,381.914 266.353,373.198 266.353,364.11Z" style="fill:#0051c6;fill-opacity:0.4;stroke:#0051c6;stroke-width:8px;stroke-linecap:round;stroke-miterlimit:1.5;"/>
    </g>
</svg>
