<?xml version="1.0" encoding="UTF-8" standalone="no"?>
<!DOCTYPE svg PUBLIC "-//W3C//DTD SVG 1.1//EN" "http://www.w3.org/Graphics/SVG/1.1/DTD/svg11.dtd">
<svg width="100%" height="100%" viewBox="0 0 534 345" version="1.1" xmlns="http://www.w3.org/2000/svg" xmlns:xlink="http://www.w3.org/1999/xlink" xml:space="preserve" xmlns:serif="http://www.serif.com/" style="fill-rule:evenodd;clip-rule:evenodd;stroke-linecap:round;stroke-linejoin:round;stroke-miterlimit:1.5;">
    <g>
        <path d="M103.949,294.348L65.031,299.48C59.327,300.232 53.576,298.491 49.246,294.702C44.916,290.913 42.428,285.443 42.417,279.69L42,64.837C41.989,59.073 44.465,53.584 48.794,49.778C53.123,45.972 58.884,44.219 64.599,44.968L103.937,50.124C107.579,45.196 113.432,42 120.03,42L413.272,42C419.869,42 425.72,45.194 429.363,50.121L468.609,44.971C474.324,44.221 480.085,45.974 484.415,49.78C488.745,53.585 491.222,59.074 491.211,64.838L490.812,279.686C490.802,285.44 488.313,290.91 483.983,294.7C479.653,298.489 473.9,300.229 468.196,299.477L429.352,294.35C425.708,299.268 419.862,302.456 413.272,302.456L120.03,302.456C113.439,302.456 107.592,299.267 103.949,294.348Z" style="fill:none;stroke:#034ebb;stroke-width:84px;"/>
        <path d="M103.949,294.348L65.031,299.48C59.327,300.232 53.576,298.491 49.246,294.702C44.916,290.913 42.428,285.443 42.417,279.69L42,64.837C41.989,59.073 44.465,53.584 48.794,49.778C53.123,45.972 58.884,44.219 64.599,44.968L103.937,50.124C107.579,45.196 113.432,42 120.03,42L413.272,42C419.869,42 425.72,45.194 429.363,50.121L468.609,44.971C474.324,44.221 480.085,45.974 484.415,49.78C488.745,53.585 491.222,59.074 491.211,64.838L490.812,279.686C490.802,285.44 488.313,290.91 483.983,294.7C479.653,298.489 473.9,300.229 468.196,299.477L429.352,294.35C425.708,299.268 419.862,302.456 413.272,302.456L120.03,302.456C113.439,302.456 107.592,299.267 103.949,294.348Z" style="fill:none;stroke:#f7fbff;stroke-width:64px;stroke-linecap:butt;stroke-miterlimit:2;"/>
        <path d="M126.736,53.112L126.736,291.343C126.736,291.343 89.995,296.188 65.031,299.48C59.327,300.232 53.576,298.491 49.246,294.702C44.916,290.913 42.428,285.443 42.417,279.69C42.321,230.386 42.096,114.206 42,64.837C41.989,59.073 44.465,53.584 48.794,49.778C53.123,45.972 58.884,44.219 64.599,44.968C89.714,48.26 126.736,53.112 126.736,53.112Z" style="fill:#cec0fe;"/>
        <clipPath id="_clip1">
            <path d="M126.736,53.112L126.736,291.343C126.736,291.343 89.995,296.188 65.031,299.48C59.327,300.232 53.576,298.491 49.246,294.702C44.916,290.913 42.428,285.443 42.417,279.69C42.321,230.386 42.096,114.206 42,64.837C41.989,59.073 44.465,53.584 48.794,49.778C53.123,45.972 58.884,44.219 64.599,44.968C89.714,48.26 126.736,53.112 126.736,53.112Z"/>
        </clipPath>
        <g clip-path="url(#_clip1)">
            <path d="M76.902,101.02L126.736,100.952" style="fill:none;stroke:#034ebb;stroke-width:8px;"/>
            <path d="M76.902,172.225L126.736,172.156" style="fill:none;stroke:#034ebb;stroke-width:8px;"/>
            <path d="M76.902,243.429L126.736,243.361" style="fill:none;stroke:#034ebb;stroke-width:8px;"/>
        </g>
        <path d="M126.736,53.112L126.736,291.343C126.736,291.343 89.995,296.188 65.031,299.48C59.327,300.232 53.576,298.491 49.246,294.702C44.916,290.913 42.428,285.443 42.417,279.69C42.321,230.386 42.096,114.206 42,64.837C41.989,59.073 44.465,53.584 48.794,49.778C53.123,45.972 58.884,44.219 64.599,44.968C89.714,48.26 126.736,53.112 126.736,53.112Z" style="fill:none;stroke:#034ebb;stroke-width:8px;"/>
        <path d="M468.609,44.971C474.324,44.221 480.085,45.974 484.415,49.78C488.745,53.585 491.222,59.074 491.211,64.838C491.119,114.207 490.904,230.379 490.812,279.686C490.802,285.44 488.313,290.91 483.983,294.7C479.653,298.489 473.9,300.229 468.196,299.477C443.254,296.185 406.566,291.343 406.566,291.343L406.566,53.112C406.566,53.112 443.523,48.263 468.609,44.971Z" style="fill:#cec0fe;"/>
        <clipPath id="_clip2">
            <path d="M468.609,44.971C474.324,44.221 480.085,45.974 484.415,49.78C488.745,53.585 491.222,59.074 491.211,64.838C491.119,114.207 490.904,230.379 490.812,279.686C490.802,285.44 488.313,290.91 483.983,294.7C479.653,298.489 473.9,300.229 468.196,299.477C443.254,296.185 406.566,291.343 406.566,291.343L406.566,53.112C406.566,53.112 443.523,48.263 468.609,44.971Z"/>
        </clipPath>
        <g clip-path="url(#_clip2)">
            <path d="M406.566,100.952L456.4,100.883" style="fill:none;stroke:#034ebb;stroke-width:8px;"/>
            <path d="M406.566,172.156L456.4,172.088" style="fill:none;stroke:#034ebb;stroke-width:8px;"/>
            <path d="M406.566,243.361L456.4,243.292" style="fill:none;stroke:#034ebb;stroke-width:8px;"/>
        </g>
        <path d="M468.609,44.971C474.324,44.221 480.085,45.974 484.415,49.78C488.745,53.585 491.222,59.074 491.211,64.838C491.119,114.207 490.904,230.379 490.812,279.686C490.802,285.44 488.313,290.91 483.983,294.7C479.653,298.489 473.9,300.229 468.196,299.477C443.254,296.185 406.566,291.343 406.566,291.343L406.566,53.112C406.566,53.112 443.523,48.263 468.609,44.971Z" style="fill:none;stroke:#034ebb;stroke-width:8px;"/>
        <path d="M413.272,42C424.317,42 433.272,50.954 433.272,62C433.272,110.502 433.272,233.953 433.272,282.456C433.272,293.501 424.317,302.456 413.272,302.456C353.94,302.456 179.362,302.456 120.03,302.456C108.985,302.456 100.03,293.501 100.03,282.456C100.03,233.953 100.03,110.502 100.03,62C100.03,50.954 108.985,42 120.03,42C179.362,42 353.94,42 413.272,42Z" style="fill:#cec0fe;"/>
        <clipPath id="_clip3">
            <path d="M413.272,42C424.317,42 433.272,50.954 433.272,62C433.272,110.502 433.272,233.953 433.272,282.456C433.272,293.501 424.317,302.456 413.272,302.456C353.94,302.456 179.362,302.456 120.03,302.456C108.985,302.456 100.03,293.501 100.03,282.456C100.03,233.953 100.03,110.502 100.03,62C100.03,50.954 108.985,42 120.03,42C179.362,42 353.94,42 413.272,42Z"/>
        </clipPath>
        <g clip-path="url(#_clip3)">
            <rect x="137.002" y="10.985" width="259.298" height="322.485" style="fill:#0051c6;stroke:#034ebb;stroke-width:8px;"/>
            <g transform="matrix(0.376654,0,0,0.376654,-562.806,-394.205)">
                <g transform="matrix(212.397,0,0,212.397,1914.45,1366.78)">
                    <path d="M0.498,-0.192L0.516,-0.205C0.539,-0.218 0.555,-0.225 0.564,-0.225C0.585,-0.225 0.607,-0.206 0.631,-0.169C0.646,-0.146 0.653,-0.127 0.653,-0.113C0.653,-0.099 0.649,-0.087 0.64,-0.078C0.631,-0.069 0.62,-0.06 0.608,-0.053C0.596,-0.046 0.584,-0.039 0.574,-0.032C0.563,-0.025 0.54,-0.017 0.506,-0.006C0.472,0.005 0.439,0.01 0.408,0.01C0.376,0.01 0.344,0.006 0.312,-0.003C0.279,-0.011 0.246,-0.025 0.212,-0.045C0.177,-0.064 0.146,-0.088 0.119,-0.117C0.092,-0.145 0.069,-0.181 0.052,-0.226C0.034,-0.27 0.025,-0.318 0.025,-0.37C0.025,-0.422 0.034,-0.469 0.051,-0.512C0.068,-0.554 0.091,-0.589 0.118,-0.617C0.145,-0.644 0.175,-0.667 0.21,-0.686C0.275,-0.722 0.341,-0.74 0.407,-0.74C0.438,-0.74 0.47,-0.735 0.503,-0.726C0.535,-0.716 0.559,-0.706 0.576,-0.696L0.6,-0.682C0.612,-0.675 0.621,-0.669 0.628,-0.664C0.645,-0.65 0.654,-0.634 0.654,-0.617C0.654,-0.599 0.647,-0.58 0.633,-0.561C0.607,-0.525 0.584,-0.507 0.563,-0.507C0.551,-0.507 0.534,-0.514 0.512,-0.529C0.484,-0.552 0.447,-0.563 0.4,-0.563C0.357,-0.563 0.314,-0.548 0.272,-0.518C0.252,-0.503 0.235,-0.483 0.222,-0.456C0.209,-0.429 0.202,-0.399 0.202,-0.366C0.202,-0.332 0.209,-0.302 0.222,-0.275C0.235,-0.248 0.252,-0.227 0.273,-0.212C0.314,-0.183 0.356,-0.168 0.4,-0.168C0.421,-0.168 0.44,-0.171 0.459,-0.176C0.477,-0.181 0.49,-0.187 0.498,-0.192Z" style="fill:#cec0fe;fill-rule:nonzero;"/>
                </g>
                <g transform="matrix(212.397,0,0,212.397,2058.67,1366.78)">
                    <path d="M0.493,-0.706C0.498,-0.716 0.507,-0.723 0.52,-0.727C0.533,-0.731 0.549,-0.733 0.568,-0.733C0.587,-0.733 0.603,-0.731 0.614,-0.728C0.625,-0.725 0.634,-0.721 0.64,-0.716C0.646,-0.711 0.651,-0.705 0.654,-0.696C0.657,-0.685 0.659,-0.667 0.659,-0.644L0.659,-0.089C0.659,-0.074 0.659,-0.062 0.658,-0.055C0.657,-0.047 0.653,-0.038 0.648,-0.028C0.639,-0.01 0.613,-0.001 0.57,-0.001C0.523,-0.001 0.496,-0.013 0.488,-0.038C0.484,-0.049 0.482,-0.067 0.482,-0.09L0.482,-0.293L0.217,-0.293L0.217,-0.089C0.217,-0.074 0.217,-0.062 0.216,-0.055C0.215,-0.047 0.211,-0.038 0.206,-0.028C0.197,-0.01 0.171,-0.001 0.128,-0.001C0.081,-0.001 0.054,-0.013 0.046,-0.038C0.042,-0.049 0.04,-0.067 0.04,-0.09L0.04,-0.645C0.04,-0.66 0.041,-0.672 0.042,-0.68C0.043,-0.687 0.046,-0.696 0.051,-0.706C0.06,-0.724 0.086,-0.733 0.129,-0.733C0.176,-0.733 0.203,-0.721 0.212,-0.696C0.215,-0.685 0.217,-0.667 0.217,-0.644L0.217,-0.44L0.482,-0.44L0.482,-0.645C0.482,-0.66 0.483,-0.672 0.484,-0.68C0.485,-0.687 0.488,-0.696 0.493,-0.706Z" style="fill:#cec0fe;fill-rule:nonzero;"/>
                </g>
                <g transform="matrix(212.397,0,0,212.397,2207.14,1366.78)">
                    <path d="M0.384,-0.742C0.483,-0.742 0.568,-0.706 0.641,-0.635C0.714,-0.564 0.75,-0.475 0.75,-0.37C0.75,-0.264 0.715,-0.174 0.646,-0.1C0.577,-0.025 0.491,0.012 0.39,0.012C0.289,0.012 0.203,-0.025 0.132,-0.098C0.061,-0.171 0.025,-0.259 0.025,-0.36C0.025,-0.415 0.035,-0.467 0.055,-0.516C0.075,-0.564 0.102,-0.604 0.135,-0.637C0.168,-0.67 0.207,-0.695 0.25,-0.714C0.293,-0.733 0.338,-0.742 0.384,-0.742ZM0.202,-0.365C0.202,-0.306 0.221,-0.258 0.26,-0.221C0.298,-0.184 0.341,-0.165 0.388,-0.165C0.435,-0.165 0.478,-0.183 0.516,-0.219C0.554,-0.255 0.573,-0.303 0.573,-0.364C0.573,-0.425 0.554,-0.473 0.516,-0.51C0.477,-0.547 0.434,-0.565 0.387,-0.565C0.34,-0.565 0.297,-0.547 0.259,-0.51C0.221,-0.472 0.202,-0.424 0.202,-0.365Z" style="fill:#cec0fe;fill-rule:nonzero;"/>
                </g>
                <g transform="matrix(212.397,0,0,212.397,1914.45,1579.17)">
                    <path d="M0.498,-0.192L0.516,-0.205C0.539,-0.218 0.555,-0.225 0.564,-0.225C0.585,-0.225 0.607,-0.206 0.631,-0.169C0.646,-0.146 0.653,-0.127 0.653,-0.113C0.653,-0.099 0.649,-0.087 0.64,-0.078C0.631,-0.069 0.62,-0.06 0.608,-0.053C0.596,-0.046 0.584,-0.039 0.574,-0.032C0.563,-0.025 0.54,-0.017 0.506,-0.006C0.472,0.005 0.439,0.01 0.408,0.01C0.376,0.01 0.344,0.006 0.312,-0.003C0.279,-0.011 0.246,-0.025 0.212,-0.045C0.177,-0.064 0.146,-0.088 0.119,-0.117C0.092,-0.145 0.069,-0.181 0.052,-0.226C0.034,-0.27 0.025,-0.318 0.025,-0.37C0.025,-0.422 0.034,-0.469 0.051,-0.512C0.068,-0.554 0.091,-0.589 0.118,-0.617C0.145,-0.644 0.175,-0.667 0.21,-0.686C0.275,-0.722 0.341,-0.74 0.407,-0.74C0.438,-0.74 0.47,-0.735 0.503,-0.726C0.535,-0.716 0.559,-0.706 0.576,-0.696L0.6,-0.682C0.612,-0.675 0.621,-0.669 0.628,-0.664C0.645,-0.65 0.654,-0.634 0.654,-0.617C0.654,-0.599 0.647,-0.58 0.633,-0.561C0.607,-0.525 0.584,-0.507 0.563,-0.507C0.551,-0.507 0.534,-0.514 0.512,-0.529C0.484,-0.552 0.447,-0.563 0.4,-0.563C0.357,-0.563 0.314,-0.548 0.272,-0.518C0.252,-0.503 0.235,-0.483 0.222,-0.456C0.209,-0.429 0.202,-0.399 0.202,-0.366C0.202,-0.332 0.209,-0.302 0.222,-0.275C0.235,-0.248 0.252,-0.227 0.273,-0.212C0.314,-0.183 0.356,-0.168 0.4,-0.168C0.421,-0.168 0.44,-0.171 0.459,-0.176C0.477,-0.181 0.49,-0.187 0.498,-0.192Z" style="fill:#cec0fe;fill-rule:nonzero;"/>
                </g>
                <g transform="matrix(212.397,0,0,212.397,2058.67,1579.17)">
                    <path d="M0.384,-0.742C0.483,-0.742 0.568,-0.706 0.641,-0.635C0.714,-0.564 0.75,-0.475 0.75,-0.37C0.75,-0.264 0.715,-0.174 0.646,-0.1C0.577,-0.025 0.491,0.012 0.39,0.012C0.289,0.012 0.203,-0.025 0.132,-0.098C0.061,-0.171 0.025,-0.259 0.025,-0.36C0.025,-0.415 0.035,-0.467 0.055,-0.516C0.075,-0.564 0.102,-0.604 0.135,-0.637C0.168,-0.67 0.207,-0.695 0.25,-0.714C0.293,-0.733 0.338,-0.742 0.384,-0.742ZM0.202,-0.365C0.202,-0.306 0.221,-0.258 0.26,-0.221C0.298,-0.184 0.341,-0.165 0.388,-0.165C0.435,-0.165 0.478,-0.183 0.516,-0.219C0.554,-0.255 0.573,-0.303 0.573,-0.364C0.573,-0.425 0.554,-0.473 0.516,-0.51C0.477,-0.547 0.434,-0.565 0.387,-0.565C0.34,-0.565 0.297,-0.547 0.259,-0.51C0.221,-0.472 0.202,-0.424 0.202,-0.365Z" style="fill:#cec0fe;fill-rule:nonzero;"/>
                </g>
                <g transform="matrix(212.397,0,0,212.397,1914.45,1791.57)">
                    <path d="M0.217,-0.148L0.489,-0.148C0.511,-0.148 0.527,-0.146 0.537,-0.141C0.547,-0.136 0.554,-0.128 0.557,-0.117C0.56,-0.106 0.562,-0.092 0.562,-0.075C0.562,-0.057 0.56,-0.043 0.557,-0.032C0.554,-0.021 0.548,-0.014 0.54,-0.01C0.527,-0.003 0.51,-0 0.488,-0L0.128,-0C0.081,-0 0.054,-0.013 0.046,-0.038C0.042,-0.049 0.04,-0.066 0.04,-0.089L0.04,-0.645C0.04,-0.66 0.041,-0.672 0.042,-0.68C0.043,-0.687 0.046,-0.696 0.051,-0.706C0.06,-0.724 0.086,-0.733 0.129,-0.733C0.176,-0.733 0.203,-0.721 0.212,-0.696C0.215,-0.685 0.217,-0.667 0.217,-0.644L0.217,-0.148Z" style="fill:#cec0fe;fill-rule:nonzero;"/>
                </g>
                <g transform="matrix(212.397,0,0,212.397,2039.13,1791.57)">
                    <path d="M0.463,-0.681L0.733,-0.123C0.744,-0.1 0.75,-0.083 0.75,-0.072C0.75,-0.048 0.731,-0.026 0.692,-0.007C0.669,0.004 0.652,0.01 0.639,0.01C0.626,0.01 0.615,0.007 0.607,0.001C0.598,-0.005 0.592,-0.011 0.589,-0.018C0.585,-0.025 0.58,-0.035 0.573,-0.048L0.521,-0.156L0.244,-0.156L0.192,-0.048C0.185,-0.035 0.18,-0.025 0.177,-0.019C0.173,-0.013 0.167,-0.007 0.159,-0.001C0.15,0.006 0.139,0.009 0.127,0.009C0.114,0.009 0.096,0.003 0.073,-0.008C0.034,-0.027 0.015,-0.048 0.015,-0.072C0.015,-0.083 0.021,-0.1 0.032,-0.123L0.302,-0.682C0.309,-0.697 0.321,-0.71 0.336,-0.719C0.35,-0.728 0.366,-0.733 0.383,-0.733C0.419,-0.733 0.446,-0.716 0.463,-0.681ZM0.382,-0.441L0.316,-0.304L0.449,-0.304L0.382,-0.441Z" style="fill:#cec0fe;fill-rule:nonzero;"/>
                </g>
                <g transform="matrix(212.397,0,0,212.397,2161.9,1791.57)">
                    <path d="M0.088,-0.734L0.644,-0.734C0.665,-0.734 0.681,-0.732 0.691,-0.727C0.701,-0.721 0.708,-0.714 0.711,-0.703C0.714,-0.692 0.716,-0.678 0.716,-0.661C0.716,-0.644 0.714,-0.63 0.711,-0.62C0.708,-0.609 0.702,-0.602 0.694,-0.598C0.682,-0.592 0.665,-0.589 0.643,-0.589L0.452,-0.589L0.452,-0.086C0.452,-0.071 0.452,-0.059 0.451,-0.052C0.45,-0.045 0.447,-0.036 0.442,-0.027C0.436,-0.017 0.428,-0.01 0.415,-0.006C0.402,-0.002 0.386,-0 0.365,-0C0.344,-0 0.328,-0.002 0.316,-0.006C0.303,-0.01 0.295,-0.017 0.29,-0.027C0.285,-0.036 0.282,-0.045 0.281,-0.053C0.28,-0.06 0.279,-0.072 0.279,-0.087L0.279,-0.589L0.087,-0.589C0.066,-0.589 0.05,-0.592 0.04,-0.597C0.03,-0.602 0.023,-0.609 0.02,-0.62C0.017,-0.631 0.015,-0.645 0.015,-0.662C0.015,-0.679 0.017,-0.693 0.02,-0.704C0.023,-0.714 0.029,-0.721 0.037,-0.725C0.049,-0.731 0.066,-0.734 0.088,-0.734Z" style="fill:#cec0fe;fill-rule:nonzero;"/>
                </g>
            </g>
        </g>
        <path d="M413.272,42C424.317,42 433.272,50.954 433.272,62C433.272,110.502 433.272,233.953 433.272,282.456C433.272,293.501 424.317,302.456 413.272,302.456C353.94,302.456 179.362,302.456 120.03,302.456C108.985,302.456 100.03,293.501 100.03,282.456C100.03,233.953 100.03,110.502 100.03,62C100.03,50.954 108.985,42 120.03,42C179.362,42 353.94,42 413.272,42Z" style="fill:none;stroke:#034ebb;stroke-width:8px;"/>
    </g>
</svg>
