<?xml version="1.0" encoding="UTF-8" standalone="no"?>
<!DOCTYPE svg PUBLIC "-//W3C//DTD SVG 1.1//EN" "http://www.w3.org/Graphics/SVG/1.1/DTD/svg11.dtd">
<svg width="100%" height="100%" viewBox="0 0 387 407" version="1.1" xmlns="http://www.w3.org/2000/svg" xmlns:xlink="http://www.w3.org/1999/xlink" xml:space="preserve" xmlns:serif="http://www.serif.com/" style="fill-rule:evenodd;clip-rule:evenodd;stroke-linecap:round;stroke-linejoin:round;stroke-miterlimit:1.5;">
    <g>
        <path d="M147.232,359.843C122.639,362.857 98.573,359.932 79.171,347.117C23.175,310.131 42.521,221.095 59.74,176.929C62.815,169.041 66.79,160.947 71.587,152.972C71.241,151.852 71.055,150.662 71.055,149.43C71.055,143.121 75.932,137.941 82.122,137.449C105.165,107.197 140.19,82.118 182.485,82.118C184.634,82.118 186.77,82.17 188.893,82.272C188.508,63.046 196.024,47.216 209.212,43.044C227.246,37.339 249.101,55.585 257.985,83.765C260.702,92.381 261.893,100.934 261.723,108.82C263.478,110.16 265.197,111.544 266.879,112.969C274.829,111.183 283.772,110.62 293.111,111.568C323.172,114.62 346.02,132.19 344.101,150.779C342.675,164.598 327.959,175.116 308.15,178.348C310.801,188.548 312.21,199.238 312.21,210.25C312.21,253.248 292.755,278.531 264.218,305.905C261.659,308.36 258.76,310.885 255.563,313.442C255.321,319.863 250.026,325.002 243.54,325.002C242.346,325.002 241.192,324.828 240.103,324.504C220.223,337.35 194.356,349.534 167.756,356.041C166.111,360.722 161.645,364.082 156.4,364.082C152.729,364.082 149.439,362.436 147.232,359.843Z" style="fill:none;stroke:#004ebb;stroke-width:84px;"/>
        <path d="M147.232,359.843C122.639,362.857 98.573,359.932 79.171,347.117C23.175,310.131 42.521,221.095 59.74,176.929C62.815,169.041 66.79,160.947 71.587,152.972C71.241,151.852 71.055,150.662 71.055,149.43C71.055,143.121 75.932,137.941 82.122,137.449C105.165,107.197 140.19,82.118 182.485,82.118C184.634,82.118 186.77,82.17 188.893,82.272C188.508,63.046 196.024,47.216 209.212,43.044C227.246,37.339 249.101,55.585 257.985,83.765C260.702,92.381 261.893,100.934 261.723,108.82C263.478,110.16 265.197,111.544 266.879,112.969C274.829,111.183 283.772,110.62 293.111,111.568C323.172,114.62 346.02,132.19 344.101,150.779C342.675,164.598 327.959,175.116 308.15,178.348C310.801,188.548 312.21,199.238 312.21,210.25C312.21,253.248 292.755,278.531 264.218,305.905C261.659,308.36 258.76,310.885 255.563,313.442C255.321,319.863 250.026,325.002 243.54,325.002C242.346,325.002 241.192,324.828 240.103,324.504C220.223,337.35 194.356,349.534 167.756,356.041C166.111,360.722 161.645,364.082 156.4,364.082C152.729,364.082 149.439,362.436 147.232,359.843Z" style="fill:none;stroke:#f7fbff;stroke-width:68px;stroke-linecap:butt;stroke-miterlimit:2;"/>
        <g>
            <path d="M264.218,305.905C230.024,338.705 135.167,384.104 79.171,347.117C23.175,310.131 42.521,221.095 59.74,176.929C76.959,132.762 122.381,82.118 182.485,82.118C254.082,82.118 312.21,139.532 312.21,210.25C312.21,253.248 292.755,278.531 264.218,305.905Z" style="fill:#ff4e78;stroke:#004ebb;stroke-width:8px;"/>
            <path d="M235.487,146.186C218.829,146.832 200.563,129.593 192.633,104.438C183.748,76.259 191.177,48.749 209.212,43.044C227.246,37.339 249.101,55.585 257.985,83.765C261.363,94.478 262.383,105.095 261.358,114.454C270.577,111.539 281.541,110.393 293.111,111.568C323.172,114.62 346.02,132.19 344.101,150.779C342.183,169.367 316.22,181.981 286.16,178.929C259.62,176.234 238.703,162.223 235.487,146.186Z" style="fill:#5dd897;stroke:#004ebb;stroke-width:8px;"/>
            <ellipse cx="274.502" cy="228.394" rx="12.032" ry="12.019" style="fill:#f5f5f5;stroke:#004ebb;stroke-width:8px;"/>
            <ellipse cx="197.835" cy="194.444" rx="12.032" ry="12.019" style="fill:#f5f5f5;stroke:#004ebb;stroke-width:8px;"/>
            <ellipse cx="156.775" cy="128.736" rx="12.032" ry="12.019" style="fill:#f5f5f5;stroke:#004ebb;stroke-width:8px;"/>
            <ellipse cx="128.173" cy="220.16" rx="12.032" ry="12.019" style="fill:#f5f5f5;stroke:#004ebb;stroke-width:8px;"/>
            <ellipse cx="55.156" cy="247.232" rx="12.032" ry="12.019" style="fill:#f5f5f5;stroke:#004ebb;stroke-width:8px;"/>
            <ellipse cx="96.093" cy="314.409" rx="12.032" ry="12.019" style="fill:#f5f5f5;stroke:#004ebb;stroke-width:8px;"/>
            <ellipse cx="156.4" cy="352.064" rx="12.032" ry="12.019" style="fill:#f5f5f5;stroke:#004ebb;stroke-width:8px;"/>
            <ellipse cx="186.361" cy="272.789" rx="12.032" ry="12.019" style="fill:#f5f5f5;stroke:#004ebb;stroke-width:8px;"/>
            <ellipse cx="243.54" cy="312.984" rx="12.032" ry="12.019" style="fill:#f5f5f5;stroke:#004ebb;stroke-width:8px;"/>
            <ellipse cx="83.087" cy="149.43" rx="12.032" ry="12.019" style="fill:#f5f5f5;stroke:#004ebb;stroke-width:8px;"/>
        </g>
    </g>
</svg>
